<?xml version="1.0" standalone="no"?><!DOCTYPE svg PUBLIC "-//W3C//DTD SVG 1.1//EN" "http://www.w3.org/Graphics/SVG/1.1/DTD/svg11.dtd"><svg xmlns:xlink="http://www.w3.org/1999/xlink" version="1.1" style="font-family:'lucida grande', 'lucida sans unicode', arial, helvetica, sans-serif;font-size:12px;" xmlns="http://www.w3.org/2000/svg" width="600" height="400"><desc>Created with Highcharts 4.2.7</desc><defs><clipPath id="highcharts-12"><rect x="0" y="0" width="600" height="400"></rect></clipPath></defs><g class="highcharts-series-group"><g class="highcharts-series highcharts-series-0" transform="translate(10,10) scale(1 1)"><path fill="rgb(55,155,25)" d="M 368.3156240169165 249.4898495846412 L 368.3156240169165 257.44480087298984 L 284.5 175.95495128834867 L 284.5 168 Z" transform="translate(0,0)" visibility="visible"></path><path fill="rgb(11,178,204)" d="M 200.73247997187192 86.48542281181494 L 200.73247997187192 94.4403741001636 L 284.5 175.95495128834867 L 284.5 168 Z" transform="translate(0,0)" visibility="visible"></path><path fill="rgb(11,178,204)" d="M 284.4431452966901 67.23729170089088 L 284.4431452966901 75.19224298923953 L 284.5 175.95495128834867 L 284.5 168 Z" transform="translate(0,0)" visibility="visible"></path><path fill="rgb(196,198,0)" d="M 148.99354337171977 199.17892086047885 L 148.99354337171977 207.13387214882752 L 284.5 175.95495128834867 L 284.5 168 Z" transform="translate(0,0)" visibility="visible"></path><path fill="rgb(11,178,204)" d="M 200.73247997187192 86.48542281181494 C 226.18590212434702 73.40696418827626 252.97937721944277 67.24616831421956 284.4431452966901 67.23729170089088 L 284.4431452966901 75.19224298923953 C 252.97937721944277 75.20111960256821 226.18590212434702 81.36191547662492 200.73247997187192 94.4403741001636 Z" transform="translate(0,0)" visibility="visible"></path><path fill="rgb(11,178,204)" d="M 284.5 168 C 284.5 168 284.5 168 284.5 168 L 284.5 175.95495128834867 C 284.5 175.95495128834867 284.5 175.95495128834867 284.5 175.95495128834867 Z" transform="translate(0,0)" visibility="visible"></path><path fill="rgb(196,198,0)" d="M 200.73132718585447 86.48601514170518 L 200.73132718585447 94.44096643005383 L 284.5 175.95495128834867 L 284.5 168 Z" transform="translate(0,0)" visibility="visible"></path><path fill="rgb(212,61,2)" d="M 368.31447157222095 249.4904422465278 L 368.31447157222095 257.4453935348765 L 284.5 175.95495128834867 L 284.5 168 Z" transform="translate(0,0)" visibility="visible"></path><path fill="rgb(196,198,0)" d="M 148.99354337171977 199.17892086047885 C 144.11637410511423 188.58060784234328 142 179.14529626604616 142 168 L 142 175.95495128834867 C 142 142.56797449081333 162.53475846812063 114.06751194307985 200.73132718585447 94.44096643005383 L 200.73132718585447 86.48601514170518 C 162.53475846812063 106.1125606547312 142 134.61302320246466 142 168 L 142 175.95495128834867 C 142 187.10024755439483 144.11637410511423 196.53555913069195 148.99354337171977 207.13387214882752 Z" transform="translate(0,0)" visibility="visible"></path><path fill="rgb(196,198,0)" d="M 284.5 168 C 284.5 168 284.5 168 284.5 168 L 284.5 175.95495128834867 C 284.5 175.95495128834867 284.5 175.95495128834867 284.5 175.95495128834867 Z" transform="translate(0,0)" visibility="visible"></path><path fill="rgb(55,155,25)" d="M 284.4709765684734 67.23728577087549 L 284.4709765684734 75.19223705922414 L 284.5 175.95495128834867 L 284.5 168 Z" transform="translate(0,0)" visibility="visible"></path><path fill="rgb(212,61,2)" d="M 148.9939843150225 199.17987903426365 L 148.9939843150225 207.13483032261232 L 284.5 175.95495128834867 L 284.5 168 Z" transform="translate(0,0)" visibility="visible"></path><path fill="rgb(55,155,25)" d="M 427 168 C 427 201.37254544838316 406.4843778252722 229.8607918878753 368.3156240169165 249.4898495846412 L 368.3156240169165 257.44480087298984 C 406.4843778252722 237.81574317622398 427 209.32749673673183 427 175.95495128834867 Z" transform="translate(0,0)" visibility="visible"></path><path fill="rgb(55,155,25)" d="M 284.5 168 C 284.5 168 284.5 168 284.5 168 C 284.5 168 284.5 168 284.5 168 L 284.5 175.95495128834867 C 284.5 175.95495128834867 284.5 175.95495128834867 284.5 175.95495128834867 C 284.5 175.95495128834867 284.5 175.95495128834867 284.5 175.95495128834867 Z" transform="translate(0,0)" visibility="visible"></path><path fill="rgb(212,61,2)" d="M 368.31447157222095 249.4904422465278 C 304.66647708657484 282.22202939577636 215.54456583564314 272.27170972000886 169.25511137117894 227.26578121028453 C 159.99620652097082 218.26360966629483 153.86511783125712 209.76471635722376 148.9939843150225 199.17987903426365 L 148.9939843150225 207.13483032261232 C 173.34698466851466 260.05322112602465 253.7571018302628 288.9923455629596 328.5950078034082 271.7721738707669 C 343.5642283010513 268.3277623293723 355.58347848390156 263.99242794081965 368.31447157222095 257.4453935348765 Z" transform="translate(0,0)" visibility="visible"></path><path fill="rgb(212,61,2)" d="M 284.5 168 C 284.5 168 284.5 168 284.5 168 C 284.5 168 284.5 168 284.5 168 L 284.5 175.95495128834867 C 284.5 175.95495128834867 284.5 175.95495128834867 284.5 175.95495128834867 C 284.5 175.95495128834867 284.5 175.95495128834867 284.5 175.95495128834867 Z" transform="translate(0,0)" visibility="visible"></path><g stroke="#50B432" stroke-width="1" stroke-linejoin="round"><path fill="#50B432" d="M 284.4709765684734 67.23728577087549 C 363.1715517870024 67.22595141583439 426.9839678457324 112.32976691445046 426.9999970443523 167.97947733475425 C 427.009611664191 201.35923776537095 406.4926305163018 229.85654777371883 368.3156240169165 249.4898495846412 L 284.5 168 C 284.5 168 284.5 168 284.5 168 C 284.5 168 284.5 168 284.5 168 Z" transform="translate(0,0)" visibility="visible"></path></g><g stroke="#ED561B" stroke-width="1" stroke-linejoin="round"><path fill="#ED561B" d="M 368.31447157222095 249.4904422465278 C 304.66647708657484 282.22202939577636 215.54456583564314 272.27170972000886 169.25511137117894 227.26578121028453 C 159.99620652097082 218.26360966629483 153.86511783125712 209.76471635722376 148.9939843150225 199.17987903426365 L 284.5 168 C 284.5 168 284.5 168 284.5 168 C 284.5 168 284.5 168 284.5 168 Z" transform="translate(0,0)" visibility="visible"></path></g><g stroke="#DDDF00" stroke-width="1" stroke-linejoin="round"><path fill="#DDDF00" d="M 148.99354337171977 199.17892086047885 C 129.50627014243355 156.83218030996 149.78391620746524 112.66432680439533 200.73132718585447 86.48601514170518 L 284.5 168 C 284.5 168 284.5 168 284.5 168 Z" transform="translate(0,0)" visibility="visible"></path></g><g stroke="#24CBE5" stroke-width="1" stroke-linejoin="round"><path fill="#24CBE5" d="M 200.73247997187192 86.48542281181494 C 226.18590212434702 73.40696418827626 252.97937721944277 67.24616831421956 284.4431452966901 67.23729170089088 L 284.5 168 C 284.5 168 284.5 168 284.5 168 Z" transform="translate(0,0)" visibility="visible"></path></g></g><g class="highcharts-markers highcharts-series-0" transform="translate(10,10) scale(1 1)"></g></g><g class="highcharts-data-labels highcharts-series-0" transform="translate(10,10) scale(1 1)" opacity="1"><path fill="none" d="M 457.2037396861165 127.60562297433847 C 452.2037396861165 127.60562297433847 440.9487969305527 130.07775892933805 430.48717525130604 133.47694586746246 L 420.0255535720594 136.87613280558688" stroke="#50B432" stroke-width="1"></path><path fill="none" d="M 159.95243212251535 292.3568615500496 C 164.95243212251535 292.3568615500496 233.66670442532117 284.7484094196884 237.0658913634456 274.2867877404417 L 240.46507830157 263.825166061195" stroke="#ED561B" stroke-width="1"></path><path fill="none" d="M 111.80192840864976 127.58209821697362 C 116.80192840864976 127.58209821697362 128.0512030694472 130.0542341719732 138.5128247486939 133.45342111009762 L 148.9744464279406 136.85260804822204" stroke="#DDDF00" stroke-width="1"></path><path fill="none" d="M 159.96162395214392 43.63430275256224 C 164.96162395214392 43.63430275256224 233.66670442532097 51.242754882923464 237.06589136344542 61.704376562170154 L 240.46507830156986 72.16599824141684" stroke="#24CBE5" stroke-width="1"></path><g style="cursor:pointer;" transform="translate(462,118)"><text x="5" style="font-size:10px;font-weight:bold;font-family:'arial', sans-serif;color:#000000;text-shadow:0 0 6px #ffffff, 0 0 3px #ffffff;fill:#000000;text-rendering:geometricprecision;" y="15"><tspan>Web Developer : 40 %</tspan></text></g><g style="cursor:pointer;" transform="translate(44,282)"><text x="5" style="font-size:10px;font-weight:bold;font-family:'arial', sans-serif;color:#000000;text-shadow:0 0 6px #ffffff, 0 0 3px #ffffff;fill:#000000;text-rendering:geometricprecision;" y="15"><tspan>Web Designer : 30 %</tspan></text></g><g style="cursor:pointer;" transform="translate(0,118)"><text x="5" style="font-size:10px;font-weight:bold;font-family:'arial', sans-serif;color:#000000;text-shadow:0 0 6px #ffffff, 0 0 3px #ffffff;fill:#000000;text-rendering:geometricprecision;" y="15"><tspan>Entrepreneur : 20 %</tspan></text></g><g style="cursor:pointer;" transform="translate(74,34)"><text x="5" style="font-size:10px;font-weight:bold;font-family:'arial', sans-serif;color:#000000;text-shadow:0 0 6px #ffffff, 0 0 3px #ffffff;fill:#000000;text-rendering:geometricprecision;" y="15"><tspan>Blogger : 10 %</tspan></text></g></g><g class="highcharts-legend" transform="translate(77,358)"><g><g><g class="highcharts-legend-item" transform="translate(8,3)"><text x="21" style="color:#333;font-size:9pt;font-weight:normal;cursor:pointer;font-family:'lucida grande','lucida sans unicode',arial,helvetica,sans-serif;text-transform:none;fill:#333;" text-anchor="start" y="15"><tspan>Web Developer</tspan></text><rect x="0" y="4" width="16" height="12" fill="#50B432"></rect></g><g class="highcharts-legend-item" transform="translate(137,3)"><text x="21" y="15" style="color:#333;font-size:9pt;font-weight:normal;cursor:pointer;font-family:'lucida grande','lucida sans unicode',arial,helvetica,sans-serif;text-transform:none;fill:#333;" text-anchor="start"><tspan>Web Designer</tspan></text><rect x="0" y="4" width="16" height="12" fill="#ED561B"></rect></g><g class="highcharts-legend-item" transform="translate(258,3)"><text x="21" y="15" style="color:#333;font-size:9pt;font-weight:normal;cursor:pointer;font-family:'lucida grande','lucida sans unicode',arial,helvetica,sans-serif;text-transform:none;fill:#333;" text-anchor="start">Entrepreneur</text><rect x="0" y="4" width="16" height="12" fill="#DDDF00"></rect></g><g class="highcharts-legend-item" transform="translate(375,3)"><text x="21" y="15" style="color:#333;font-size:9pt;font-weight:normal;cursor:pointer;font-family:'lucida grande','lucida sans unicode',arial,helvetica,sans-serif;text-transform:none;fill:#333;" text-anchor="start">Blogger</text><rect x="0" y="4" width="16" height="12" fill="#24CBE5"></rect></g></g></g></g><g class="highcharts-tooltip" display="none" style="cursor:default;padding:0;pointer-events:none;white-space:nowrap;" transform="translate(0,0)"><path fill="none" d="M 3.5 0.5 L 13.5 0.5 C 16.5 0.5 16.5 0.5 16.5 3.5 L 16.5 13.5 C 16.5 16.5 16.5 16.5 13.5 16.5 L 3.5 16.5 C 0.5 16.5 0.5 16.5 0.5 13.5 L 0.5 3.5 C 0.5 0.5 0.5 0.5 3.5 0.5"  stroke="black" stroke-opacity="0.049999999999999996" stroke-width="5" transform="translate(1, 1)"></path><path fill="none" d="M 3.5 0.5 L 13.5 0.5 C 16.5 0.5 16.5 0.5 16.5 3.5 L 16.5 13.5 C 16.5 16.5 16.5 16.5 13.5 16.5 L 3.5 16.5 C 0.5 16.5 0.5 16.5 0.5 13.5 L 0.5 3.5 C 0.5 0.5 0.5 0.5 3.5 0.5"  stroke="black" stroke-opacity="0.09999999999999999" stroke-width="3" transform="translate(1, 1)"></path><path fill="none" d="M 3.5 0.5 L 13.5 0.5 C 16.5 0.5 16.5 0.5 16.5 3.5 L 16.5 13.5 C 16.5 16.5 16.5 16.5 13.5 16.5 L 3.5 16.5 C 0.5 16.5 0.5 16.5 0.5 13.5 L 0.5 3.5 C 0.5 0.5 0.5 0.5 3.5 0.5"  stroke="black" stroke-opacity="0.15" stroke-width="1" transform="translate(1, 1)"></path><path fill="rgb(249, 249, 249)" fill-opacity=" .85" d="M 3.5 0.5 L 13.5 0.5 C 16.5 0.5 16.5 0.5 16.5 3.5 L 16.5 13.5 C 16.5 16.5 16.5 16.5 13.5 16.5 L 3.5 16.5 C 0.5 16.5 0.5 16.5 0.5 13.5 L 0.5 3.5 C 0.5 0.5 0.5 0.5 3.5 0.5"></path><text x="8" style="font-size:12px;color:#000000;fill:#000000;" y="20"></text></g><text x="590" text-anchor="end" style="cursor:pointer;color:#909090;font-size:9px;fill:#909090;" y="395">meta-chart.com</text></svg>