<?xml version="1.0" encoding="utf-8"?>
<!-- Generator: Adobe Illustrator 19.1.0, SVG Export Plug-In . SVG Version: 6.00 Build 0)  -->
<svg version="1.1" id="Layer_1" xmlns="http://www.w3.org/2000/svg" xmlns:xlink="http://www.w3.org/1999/xlink" x="0px" y="0px"
	 viewBox="-445 678 388 133" style="enable-background:new -445 678 388 133;" xml:space="preserve">
<style type="text/css">
	.st0{fill:#FFFFFF;}
	.st1{fill:#D0D1CF;}
	.st2{fill:#ECEDEB;}
	.st3{fill:#F7F8F9;}
	.st4{fill:#FDB917;}
	.st5{clip-path:url(#SVGID_2_);fill:#EF4136;}
	.st6{clip-path:url(#SVGID_4_);fill:#8B2E30;}
	.st7{clip-path:url(#SVGID_6_);fill:#8B2E30;}
	.st8{clip-path:url(#SVGID_8_);fill:#EF4136;}
	.st9{clip-path:url(#SVGID_10_);fill:#8B2E30;}
	.st10{clip-path:url(#SVGID_12_);fill:#8B2E30;}
	.st11{clip-path:url(#SVGID_14_);fill:#EF4136;}
	.st12{clip-path:url(#SVGID_16_);fill:#8B2E30;}
	.st13{clip-path:url(#SVGID_18_);fill:#8B2E30;}
	.st14{clip-path:url(#SVGID_20_);fill:#EF4136;}
	.st15{clip-path:url(#SVGID_22_);fill:#8B2E30;}
	.st16{clip-path:url(#SVGID_24_);fill:#8B2E30;}
</style>
<path class="st0" d="M-340.5,757.6c2.1,2.2,4.6,2.6,6.5,2.6c3.6,0,5.5-1.6,5.5-4.3c0-6.6-11.4-5.3-11.4-12.7c0-4.3,3.8-6,7.9-6
	c1.6,0,3.8,0.3,5.2,0.8l0.3,5.6h-0.1c-0.7-2.9-2.5-5.2-5.8-5.2c-2.6,0-4.6,1.3-4.6,3.9c0,6,11.5,4.8,11.5,12.7
	c0,4.2-3.2,6.7-7.6,6.7c-3.4,0-6.3-1.5-7.8-3.8L-340.5,757.6z"/>
<path class="st0" d="M-308.2,761.5c-0.8-0.8-1.3-2.1-1.4-3.1c-1.3,1.7-3.3,3.4-6.6,3.4c-4.1,0-7.1-2.8-7.1-7.2
	c0-5.3,4.5-7.3,9.2-7.3c1.7,0,3.2,0.2,4.5,0.7v-1.2c0-5.1-1.2-8.1-5.9-8.1c-1.2,0-4.1,0.1-6.5,2.5l-0.4-0.3c2.2-2.7,5.4-3.6,8.4-3.6
	c5.7,0,7.4,2.9,7.4,8.2v8.4c0,2.6,0.1,5.3,1.1,6.2L-308.2,761.5z M-309.6,749c-1.2-0.4-2.7-0.5-3.7-0.5c-5.3,0-6.9,2.7-6.9,5.8
	c0,3.9,2.5,5.7,5.1,5.7c2.7,0,4.6-1.6,5.5-2.9V749z"/>
<path class="st1" d="M-348.3,744.4c0,13.8-11.2,25-25,25c-13.8,0-25-11.2-25-25c0-13.8,11.2-25,25-25
	C-359.4,719.4-348.3,730.6-348.3,744.4 M-359.8,745.3c0-7.8-6.4-14.2-14.2-14.2c-7.8,0-14.2,6.4-14.2,14.2c0,7.8,6.4,14.2,14.2,14.2
	C-366.1,759.5-359.8,753.2-359.8,745.3"/>
<path class="st0" d="M-310,772.7c3.1-1.8,4.7-4,6.2-11.5l4.5-22.2h-3.6l0.5-1.3h3.3l0.4-2c1.4-7.2,4.6-13.6,11.3-13.6
	c1.5,0,2.8,0.3,3.5,0.5l-0.9,5.4h-0.1c0-2.6-0.7-4.6-3.5-4.6c-4.3,0-5.9,4.6-6.9,9.4l-1,4.8h6.2l-0.5,1.3h-6l-3.8,18.8
	c-2.5,12.4-6.4,14-9.5,15.3L-310,772.7z"/>
<path class="st0" d="M-273,757.9c-2.2,2.6-5.2,3.8-8.8,3.8c-7.2,0-11.8-4.9-11.8-12.3c0-7,4.2-12.3,11-12.3c7.3,0,10.1,6,10.1,10.4
	h-17.7c0,0.6,0,1.2,0,1.7c0,6.6,3.2,10.8,9.9,10.8c1.6,0,4.3-0.1,7-2.6L-273,757.9z M-276.2,746.3c0-4.1-2.5-7.9-6.8-7.9
	c-4.2,0-6.3,3.7-7,7.9H-276.2z"/>
<path class="st0" d="M-249.6,758.3c-1.4,1.8-4.3,3.3-8.4,3.3c-7.1,0-12.6-4.3-12.6-12.3c0-7.9,5.6-12.2,13.2-12.2
	c3.2,0,5.8,0.5,7.3,1.3l0.2,5h-0.1c-1.4-2.8-4.2-4.5-7.8-4.5c-5.6,0-8.1,4.4-8.1,9.8c0,6.6,3.8,10.9,9.8,10.9c1.7,0,3.8-0.2,6-1.8
	L-249.6,758.3z"/>
<path class="st0" d="M-236.4,737.1c7.9,0,12.8,5.3,12.8,12.2c0,7.2-5.3,12.3-12.8,12.3c-7.4,0-12.8-5-12.8-12.3
	C-249.1,742.1-244,737.1-236.4,737.1 M-228.3,750.4c0-5.6-2.6-11.5-8.5-11.5c-5,0-7.5,4.1-7.5,9.8c0,6,2.8,11.2,8.5,11.2
	C-230.9,759.9-228.3,756-228.3,750.4"/>
<path class="st0" d="M-220.7,740.2c0-0.4-0.1-1.9-0.5-2.5v-0.1h4.9v20.6c0,1.2,1.1,1.3,3,1.3h1.4c3.2,0,5.3-0.5,6.4-2.9h0.1
	l-0.3,4.7h-14.9V740.2z"/>
<path class="st0" d="M-203.5,740.2c0-0.4-0.1-1.9-0.5-2.5v-0.1h4.9v20.6c0,1.2,1.1,1.3,3,1.3h1.4c3.2,0,5.3-0.5,6.4-2.9h0.1
	l-0.3,4.7h-14.9L-203.5,740.2L-203.5,740.2z"/>
<path class="st0" d="M-186.2,740.2c0-0.4-0.1-1.9-0.5-2.5v-0.1h13.6l0.3,4.4h-0.1c-0.4-1.8-2.3-2.7-5.4-2.7h-3.4v8.7h3.9
	c0.8,0,3.6-0.1,3.8-0.6h0.1v3.7h-0.1c-0.2-1.3-3.1-1.4-4.3-1.4h-3.4v8.6c0,1,1,1.1,2.4,1.1h1.9c3.6,0,4.8-0.9,5.5-2.8h0.1l-0.2,4.6
	h-14.1L-186.2,740.2L-186.2,740.2z"/>
<path class="st0" d="M-153.5,754.7c0-2.4-0.6-2.9-2-3.5V751h5.6c0.5,0.8,0.6,2.1,0.6,3.3v4.2c0,0.7,0,2.3,0.5,2.7l-0.2,0
	c-0.7-0.3-1.5-0.4-2.5-0.4c-2.1,0-3.7,0.8-6.7,0.8c-7,0-12.6-4.4-12.6-12.1c0-7.6,5.4-12.4,13.7-12.4c2.5,0,5.4,0.4,7.1,1.3l0.2,5
	h-0.1c-1.4-3-4.4-4.5-7.7-4.5c-5.3,0-8.4,4-8.4,10.2c0,7,3.8,10.8,8.9,10.8c1.3,0,3.6-0.3,3.6-2.4L-153.5,754.7L-153.5,754.7z"/>
<path class="st0" d="M-145.5,740.2c0-0.4-0.1-1.9-0.5-2.5v-0.1h13.6l0.3,4.4h-0.1c-0.4-1.8-2.3-2.7-5.4-2.7h-3.4v8.7h3.9
	c0.8,0,3.6-0.1,3.8-0.6h0.1v3.7h-0.1c-0.2-1.3-3.1-1.4-4.3-1.4h-3.4v8.6c0,1,1,1.1,2.4,1.1h1.9c3.6,0,4.8-0.9,5.5-2.8h0.1l-0.2,4.6
	h-14.1L-145.5,740.2L-145.5,740.2z"/>
<path class="st0" d="M-129.5,757.3c1.7,1.7,3.9,2.5,6,2.5c2.6,0,4.7-1,4.7-3.8c0-2.6-2.1-4-4.5-5.4c-2.8-1.7-5.6-3.4-5.6-7.2
	c0-3.9,3.2-6.2,8-6.2c1.9,0,4,0.3,5.3,1l0.2,5h-0.1c-1.1-2.6-3.1-4.3-5.8-4.3c-2.2,0-3.7,1.3-3.7,3.4c0,2.4,2.3,3.8,4.7,5.2
	c2.8,1.7,5.8,3.6,5.8,7.5c0,4.5-3.5,6.7-7.9,6.7c-4.1,0-6.3-2-7.4-3.9L-129.5,757.3z"/>
<path class="st0" d="M-125.1,756.1c0-1.1,0.9-2,2-2c1.1,0,2,0.9,2,2c0,1.1-0.9,2-2,2C-124.3,758.1-125.1,757.2-125.1,756.1
	 M-121.5,756.1c0-1-0.7-1.7-1.6-1.7s-1.6,0.8-1.6,1.7c0,1,0.7,1.7,1.7,1.7C-122.2,757.8-121.5,757-121.5,756.1 M-123.9,755.2
	c0,0,0-0.2-0.1-0.2v0h0.7c0.4,0,0.8,0.2,0.8,0.6c0,0.3-0.2,0.5-0.5,0.6c0.3,0.2,0.5,0.8,0.8,1.1v0h-0.5c-0.2-0.4-0.4-1-0.8-1l-0.1,0
	v0.7c0,0.1,0,0.3,0.1,0.3v0h-0.5V755.2z M-123.5,756c0,0.1,0.2,0.1,0.3,0.1c0.3,0,0.5-0.2,0.5-0.5c0-0.3-0.2-0.4-0.5-0.4
	c-0.1,0-0.1,0-0.2,0V756z"/>
<path class="st2" d="M-351.3,742.4c0,0.1,0,0.1,0,0.2c0,0.3,0.1,0.5,0.1,0.8c0.3,1,1,2.3,1.7,3.5c0.4,0.6,0.7,1.2,1,1.7
	c0.3,0.5,0.5,0.9,0.7,1.2v0c0.6,1.2,1.1,2.8,1.1,4.4c0,1.8-0.6,3.6-2,5.1c-1.5,1.5-3.9,2.7-7.8,3c-0.2,0-0.5,0-0.7,0
	c-0.6,0-1.1,0-1.8,0c-0.6,0-1.2,0-1.8,0.3l0,0c-0.5,0.2-0.9,0.5-1.2,0.8c-0.2,0.4-0.3,0.7-0.4,1.1c-0.1,0.3,0.1,0.5,0.3,0.6
	c0.3,0.1,0.5-0.1,0.6-0.3c0.1-0.4,0.2-0.7,0.3-0.8c0.1-0.2,0.3-0.3,0.6-0.4h0c0.5-0.2,1-0.2,1.5-0.2c0.6,0,1.1,0,1.8,0
	c0.2,0,0.5,0,0.8,0c4-0.4,6.7-1.6,8.4-3.3c1.7-1.7,2.3-3.8,2.3-5.8c0-1.8-0.5-3.5-1.2-4.9v0c-0.2-0.3-0.5-0.8-0.8-1.4
	c-0.5-0.9-1.2-2-1.7-3c-0.3-0.5-0.5-1-0.6-1.4c-0.2-0.4-0.2-0.7-0.2-0.9l0-0.1c0-0.3-0.2-0.5-0.4-0.5
	C-351,741.9-351.3,742.1-351.3,742.4"/>
<path class="st3" d="M-371.4,768.7c-0.9-0.2-1.5-0.3-2.1-0.3c-0.7,0-1.3,0.1-1.9,0.3c-1.5,0.5-2.9,1.4-4.1,2.3
	c-1.3,0.9-2.5,1.8-3.8,2.4c-1.3,0.6-4.1,1.5-6.7,1.5c-1.2,0-2.3-0.2-3.4-0.6c-1-0.4-1.9-1.1-2.6-2.2c-0.5-0.7-0.6-1.4-0.6-2.2
	c0-1.2,0.5-2.4,1.2-3.7c0.7-1.3,1.6-2.6,2.1-3.9c0.3-0.8,0.6-1.6,0.6-2.4c0-0.5-0.1-1-0.3-1.5c-0.1-0.3-0.4-0.4-0.7-0.3
	c-0.3,0.1-0.4,0.4-0.3,0.7c0.1,0.4,0.2,0.7,0.2,1.1c0,0.6-0.2,1.3-0.5,2c-0.5,1.2-1.3,2.5-2.1,3.8c-0.7,1.3-1.4,2.7-1.4,4.2
	c0,0.9,0.2,1.8,0.8,2.7c0.8,1.3,1.9,2.1,3.1,2.6c1.2,0.5,2.5,0.7,3.8,0.7c2.9,0,5.7-1,7.1-1.6c1.5-0.7,2.7-1.6,4-2.5
	c1.3-0.9,2.5-1.7,3.9-2.1h0c0.6-0.2,1-0.3,1.6-0.3c0.5,0,1.1,0.1,1.9,0.3c0.3,0.1,0.6-0.1,0.6-0.4
	C-370.9,769.1-371.1,768.8-371.4,768.7"/>
<path class="st3" d="M-388.3,724.5c-0.4,0.3-1,0.6-1.7,0.7c-1.1,0.3-2.5,0.4-3.7,0.5c-0.6,0-1.2,0.1-1.8,0.1c-0.5,0-1,0.1-1.4,0.2
	c-1.5,0.3-2.8,1.1-3.7,2.2c-0.9,1.1-1.4,2.5-1.4,4c0,1.1,0.3,2.4,0.8,3.6c0.6,1.3,1.4,2.4,2.1,3.5c0.7,1.1,1.3,2.3,1.6,3.5
	c0.3,1.4,0.3,2.5,0.3,3.7c0,0.5,0,1,0,1.5c0,0.3,0.2,0.5,0.5,0.5c0.3,0,0.5-0.2,0.5-0.5c0-0.5,0-1,0-1.5c0-1.2-0.1-2.4-0.4-3.9
	c-0.3-1.4-1-2.7-1.7-3.8c-0.7-1.2-1.5-2.3-2-3.4c-0.5-1.1-0.8-2.2-0.8-3.2c0-1.4,0.4-2.5,1.2-3.4c0.8-0.9,1.8-1.6,3.2-1.9
	c0.4-0.1,1.1-0.1,1.8-0.2c1.2-0.1,2.6-0.1,3.9-0.3c0.7-0.1,1.3-0.2,1.9-0.4c0.6-0.2,1.1-0.4,1.5-0.8c0.2-0.2,0.2-0.5,0.1-0.7
	C-387.8,724.4-388.1,724.4-388.3,724.5"/>
<path class="st0" d="M-348,743.8c0,13.4-10.9,24.4-24.4,24.4c-13.4,0-24.4-10.9-24.4-24.4s10.9-24.4,24.4-24.4
	C-358.9,719.5-348,730.4-348,743.8 M-372.4,729.4c-8,0-14.4,6.5-14.4,14.4c0,8,6.5,14.4,14.4,14.4c8,0,14.4-6.5,14.4-14.4
	C-358,735.9-364.4,729.4-372.4,729.4"/>
<path class="st4" d="M-385.5,723.6c-0.4,0.3-1.1,0.5-1.8,0.6c-0.8,0.1-1.7,0.2-2.6,0.2c-1.1,0-2.2-0.1-3.1-0.1c-0.5,0-0.9,0-1.3,0.1
	c-1.6,0.2-3,1-4,2.1s-1.6,2.6-1.6,4.3c0,1,0.2,2,0.6,3c0.5,1.3,1.2,2.5,1.8,3.7c0.6,1.2,1.1,2.4,1.3,3.7c0.1,0.7,0.1,1.3,0.1,2
	c0,1.1-0.1,2.1-0.2,3.2c0,0.2,0.1,0.4,0.4,0.5c0.2,0,0.4-0.1,0.4-0.4c0.1-1.1,0.2-2.1,0.2-3.3c0-0.6,0-1.3-0.1-2.1
	c-0.2-1.4-0.7-2.7-1.4-3.9c-0.6-1.2-1.3-2.4-1.8-3.6c-0.4-1-0.5-1.9-0.5-2.8c0-1.5,0.5-2.8,1.4-3.7c0.9-1,2.1-1.6,3.5-1.8h0
	c0.3,0,0.7-0.1,1.1-0.1c0.9,0,2,0,3.1,0.1c0.9,0,1.9,0,2.7-0.2c0.8-0.1,1.6-0.4,2.2-0.8c0.2-0.1,0.2-0.4,0.1-0.6
	C-385,723.5-385.3,723.5-385.5,723.6"/>
<path class="st4" d="M-349.2,741.7c0,0.1,0,0.1,0,0.2c0,0.2,0.1,0.5,0.1,0.8c0.3,1,1,2.3,1.7,3.5c0.7,1.2,1.4,2.3,1.7,2.9
	c0.7,1.2,1.1,2.8,1.1,4.5c0,1.8-0.6,3.7-2.1,5.2c-1.5,1.5-4,2.7-7.8,3c-0.2,0-0.5,0-0.7,0c-0.6,0-1.2,0-1.8,0c-0.6,0-1.2,0-1.8,0.2
	h0c-0.5,0.2-0.9,0.5-1.1,0.8c-0.2,0.4-0.3,0.7-0.4,1.1c-0.1,0.2,0.1,0.4,0.3,0.5c0.2,0.1,0.4-0.1,0.5-0.3c0.1-0.4,0.2-0.7,0.3-0.9
	c0.1-0.2,0.3-0.4,0.7-0.5c0.5-0.2,1-0.2,1.6-0.2c0.6,0,1.1,0,1.8,0c0.2,0,0.5,0,0.8,0c4-0.4,6.7-1.6,8.3-3.3
	c1.7-1.7,2.3-3.8,2.3-5.7c0-1.8-0.5-3.5-1.2-4.9v0c-0.2-0.3-0.5-0.8-0.8-1.4c-0.5-0.9-1.2-2-1.7-3c-0.3-0.5-0.5-1-0.6-1.4
	c-0.2-0.4-0.2-0.7-0.2-0.9l0-0.1c0-0.2-0.1-0.4-0.4-0.5C-349,741.3-349.2,741.4-349.2,741.7"/>
<path class="st4" d="M-370.2,767c-0.9-0.2-1.5-0.3-2.1-0.3c-0.7,0-1.3,0.1-1.9,0.3c-1.5,0.5-2.8,1.4-4.1,2.3
	c-1.3,0.9-2.5,1.8-3.8,2.4c-1.3,0.6-4.1,1.5-6.8,1.5c-1.2,0-2.4-0.2-3.4-0.6c-1-0.5-2-1.2-2.6-2.3c-0.5-0.8-0.7-1.5-0.7-2.2
	c0-1.2,0.5-2.5,1.2-3.8c0.7-1.3,1.6-2.6,2.1-3.9c0.3-0.8,0.6-1.6,0.6-2.4c0-0.5-0.1-0.9-0.3-1.4c-0.1-0.2-0.3-0.3-0.5-0.2
	c-0.2,0.1-0.3,0.3-0.2,0.5c0.2,0.4,0.2,0.8,0.2,1.1c0,0.7-0.2,1.3-0.5,2.1c-0.5,1.2-1.3,2.5-2.1,3.9c-0.7,1.3-1.3,2.7-1.3,4.2
	c0,0.9,0.2,1.8,0.8,2.7c0.8,1.2,1.8,2.1,3,2.6c1.2,0.5,2.5,0.7,3.7,0.7c2.9,0,5.7-1,7.1-1.6c1.4-0.6,2.7-1.6,4-2.5
	c1.3-0.9,2.5-1.7,3.9-2.1c0.6-0.2,1-0.3,1.6-0.3c0.5,0,1.1,0.1,1.9,0.3c0.2,0,0.4-0.1,0.5-0.3C-369.8,767.3-370,767.1-370.2,767"/>
<path class="st4" d="M-375.2,720.8c1,0.2,2.1,0.3,3.2,0.3c1.7,0,3.4-0.2,5-0.3c1.5-0.2,2.9-0.3,3.8-0.3c0.1,0,0.3,0,0.4,0
	c2.3,0.2,4.4,1.6,5.8,3.3h0c0.3,0.4,0.8,1.1,1.2,2c0.7,1.2,1.4,2.7,2,3.9c0.3,0.6,0.6,1.1,0.8,1.5c0.1,0.2,0.2,0.4,0.3,0.5
	c0,0.1,0.1,0.1,0.1,0.2c0,0.1,0.1,0.1,0.2,0.2c0.2,0.1,0.4,0.1,0.6-0.1c0.1-0.2,0.1-0.4-0.1-0.6l-0.1,0.1l0.1-0.1l0,0l-0.1,0.1
	l0.1-0.1l0,0c0,0-0.1-0.2-0.3-0.4c-0.4-0.7-1.2-2.3-1.9-3.8c-0.4-0.8-0.8-1.5-1.2-2.2c-0.4-0.7-0.8-1.3-1.1-1.7
	c-1.5-1.9-3.8-3.4-6.4-3.6h0c-0.1,0-0.3,0-0.4,0c-0.9,0-2.3,0.2-3.8,0.3c-1.5,0.2-3.3,0.3-4.9,0.3c-1.1,0-2.1-0.1-3.1-0.2
	c-0.2,0-0.4,0.1-0.5,0.3C-375.6,720.5-375.4,720.7-375.2,720.8"/>
<g>
	<g>
		<defs>
			<path id="SVGID_1_" d="M-386.9,743.8c0-8,6.5-14.4,14.4-14.4c8,0,14.4,6.5,14.4,14.4c0,8-6.5,14.4-14.4,14.4
				C-380.4,758.3-386.9,751.8-386.9,743.8 M-396.7,743.8c0,13.4,10.9,24.4,24.4,24.4c13.5,0,24.4-10.9,24.4-24.4
				c0-13.4-10.9-24.4-24.4-24.4C-385.8,719.5-396.7,730.4-396.7,743.8"/>
		</defs>
		<clipPath id="SVGID_2_">
			<use xlink:href="#SVGID_1_"  style="overflow:visible;"/>
		</clipPath>
		<polygon class="st5" points="-359,742.9 -361.1,736.9 -349.5,731.1 -346.4,740.6 		"/>
	</g>
</g>
<g>
	<g>
		<defs>
			<path id="SVGID_3_" d="M-360.1,736.4c1.1,1.9,1.9,4.1,2,6.4l9.8-1.8c-0.4-3.2-1.4-6.3-3-9L-360.1,736.4z"/>
		</defs>
		<clipPath id="SVGID_4_">
			<use xlink:href="#SVGID_3_"  style="overflow:visible;"/>
		</clipPath>
		<path class="st6" d="M-356.8,734.7l-3.3,1.6c1.1,1.9,1.9,4.1,2,6.4l3.6-0.7c-0.2-2.1-0.1-1.7-0.9-4.2
			C-355.7,736.7-356.3,735.6-356.8,734.7"/>
	</g>
	<g>
		<defs>
			<path id="SVGID_5_" d="M-360.1,736.4c1.1,1.9,1.9,4.1,2,6.4l9.8-1.8c-0.4-3.2-1.4-6.3-3-9L-360.1,736.4z"/>
		</defs>
		<clipPath id="SVGID_6_">
			<use xlink:href="#SVGID_5_"  style="overflow:visible;"/>
		</clipPath>
		<path class="st7" d="M-351.2,731.9L-351.2,731.9l-1,0.5c0.4,0.8,1.4,2.5,2,4.8c0.4,1.6,0.6,3.1,0.6,3.9l1.3-0.2
			c-0.1-0.6-0.2-1.1-0.3-1.7C-349,736.6-349.9,734.1-351.2,731.9"/>
	</g>
</g>
<g>
	<g>
		<defs>
			<path id="SVGID_7_" d="M-386.9,743.8c0-8,6.5-14.4,14.4-14.4c8,0,14.4,6.5,14.4,14.4c0,8-6.5,14.4-14.4,14.4
				C-380.4,758.3-386.9,751.8-386.9,743.8 M-396.7,743.8c0,13.4,10.9,24.4,24.4,24.4c13.5,0,24.4-10.9,24.4-24.4
				c0-13.4-10.9-24.4-24.4-24.4C-385.8,719.5-396.7,730.4-396.7,743.8"/>
		</defs>
		<clipPath id="SVGID_8_">
			<use xlink:href="#SVGID_7_"  style="overflow:visible;"/>
		</clipPath>
		<polygon class="st8" points="-359.6,766.1 -369.1,769.3 -370.8,757 -365.2,755 		"/>
	</g>
</g>
<g>
	<g>
		<defs>
			<path id="SVGID_9_" d="M-370.6,758.2l1.3,9.8c3.3-0.4,6.3-1.5,9.1-3.1l-4.5-8.9C-366.5,757.2-368.5,757.9-370.6,758.2"/>
		</defs>
		<clipPath id="SVGID_10_">
			<use xlink:href="#SVGID_9_"  style="overflow:visible;"/>
		</clipPath>
		<path class="st9" d="M-364.7,756.1c-1.8,1.1-3.8,1.9-5.9,2.1l0.2,1.3c0.1,0,0.2,0,0.3,0c1,0,2.4-0.1,3.5-0.3
			c1.1-0.2,2.1-0.7,3-1.1L-364.7,756.1z"/>
	</g>
	<g>
		<defs>
			<path id="SVGID_11_" d="M-370.6,758.2l1.3,9.8c3.3-0.4,6.3-1.5,9.1-3.1l-4.5-8.9C-366.5,757.2-368.5,757.9-370.6,758.2"/>
		</defs>
		<clipPath id="SVGID_12_">
			<use xlink:href="#SVGID_11_"  style="overflow:visible;"/>
		</clipPath>
		<path class="st10" d="M-360.7,764c-0.8,0.4-2.7,1.4-4.5,1.8c-1.6,0.4-3.5,0.5-4.4,0.5l0.2,1.8c3.3-0.4,6.3-1.5,9.1-3.1L-360.7,764
			z"/>
	</g>
</g>
<g>
	<g>
		<defs>
			<path id="SVGID_13_" d="M-386.9,743.8c0-8,6.5-14.4,14.4-14.4c8,0,14.4,6.5,14.4,14.4c0,8-6.5,14.4-14.4,14.4
				C-380.4,758.3-386.9,751.8-386.9,743.8 M-396.7,743.8c0,13.4,10.9,24.4,24.4,24.4c13.5,0,24.4-10.9,24.4-24.4
				c0-13.4-10.9-24.4-24.4-24.4C-385.8,719.5-396.7,730.4-396.7,743.8"/>
		</defs>
		<clipPath id="SVGID_14_">
			<use xlink:href="#SVGID_13_"  style="overflow:visible;"/>
		</clipPath>
		<polygon class="st11" points="-394.7,757.1 -397.9,747.7 -386,745 -383.7,750.9 		"/>
	</g>
</g>
<g>
	<g>
		<defs>
			<path id="SVGID_15_" d="M-396.5,747.4c0.5,3.2,1.6,6.3,3.2,9l8.6-4.9c-1.2-1.9-1.9-4-2.1-6.3L-396.5,747.4z"/>
		</defs>
		<clipPath id="SVGID_16_">
			<use xlink:href="#SVGID_15_"  style="overflow:visible;"/>
		</clipPath>
		<path class="st12" d="M-394.4,746.9l-2.1,0.5c0.5,3.2,1.6,6.3,3.2,9l2.3-1.3c-0.7-0.9-1.6-2.3-2.1-3.8
			C-393.6,749.8-394.1,748.1-394.4,746.9"/>
	</g>
	<g>
		<defs>
			<path id="SVGID_17_" d="M-396.5,747.4c0.5,3.2,1.6,6.3,3.2,9l8.6-4.9c-1.2-1.9-1.9-4-2.1-6.3L-396.5,747.4z"/>
		</defs>
		<clipPath id="SVGID_18_">
			<use xlink:href="#SVGID_17_"  style="overflow:visible;"/>
		</clipPath>
		<path class="st13" d="M-386.8,745.1l-1,0.2c0.1,1,0.3,2.2,0.7,3.4c0.4,1,1,2.2,1.6,3.1l0.8-0.5
			C-385.9,749.6-386.6,747.4-386.8,745.1"/>
	</g>
</g>
<g>
	<g>
		<defs>
			<path id="SVGID_19_" d="M-386.9,743.8c0-8,6.5-14.4,14.4-14.4c8,0,14.4,6.5,14.4,14.4c0,8-6.5,14.4-14.4,14.4
				C-380.4,758.3-386.9,751.8-386.9,743.8 M-396.7,743.8c0,13.4,10.9,24.4,24.4,24.4c13.5,0,24.4-10.9,24.4-24.4
				c0-13.4-10.9-24.4-24.4-24.4C-385.8,719.5-396.7,730.4-396.7,743.8"/>
		</defs>
		<clipPath id="SVGID_20_">
			<use xlink:href="#SVGID_19_"  style="overflow:visible;"/>
		</clipPath>
		<polygon class="st14" points="-373.6,731.1 -379.5,733.5 -385.8,720.9 -376.5,717.9 		"/>
	</g>
</g>
<g>
	<g>
		<defs>
			<path id="SVGID_21_" d="M-384.8,722.9l4.4,8.9c1.9-1.2,4.1-2.1,6.4-2.3l-2.1-9.7C-379.2,720.2-382.2,721.3-384.8,722.9"/>
		</defs>
		<clipPath id="SVGID_22_">
			<use xlink:href="#SVGID_21_"  style="overflow:visible;"/>
		</clipPath>
		<path class="st15" d="M-374.6,726.6c-1,0.2-2.7,0.7-4.1,1.4c-1,0.5-2,1.1-2.8,1.7l1,2.1c1.9-1.2,4.1-2.1,6.4-2.3L-374.6,726.6z"/>
	</g>
	<g>
		<defs>
			<path id="SVGID_23_" d="M-384.8,722.9l4.4,8.9c1.9-1.2,4.1-2.1,6.4-2.3l-2.1-9.7C-379.2,720.2-382.2,721.3-384.8,722.9"/>
		</defs>
		<clipPath id="SVGID_24_">
			<use xlink:href="#SVGID_23_"  style="overflow:visible;"/>
		</clipPath>
		<path class="st16" d="M-376.1,719.8c-3.1,0.5-6.1,1.6-8.7,3.1l0.8,1.6c1-0.6,2.7-1.6,4.2-2.2c1.6-0.6,3.3-0.8,4.1-0.9
			L-376.1,719.8z"/>
	</g>
</g>
</svg>
